<svg width="24" height="24" viewBox="0 0 24 24" fill="none" xmlns="http://www.w3.org/2000/svg">
<g clip-path="url(#clip0_2259_626)">
<path d="M12 24C18.6274 24 24 18.6274 24 12C24 5.37258 18.6274 0 12 0C5.37258 0 0 5.37258 0 12C0 18.6274 5.37258 24 12 24Z" fill="#141726"/>
<path d="M16.0798 17.0671C14.0758 13.8121 11.0878 11.9671 7.39776 11.1991C6.09276 10.9291 4.78176 10.9321 3.51576 11.4301C2.64876 11.7721 2.51676 12.1321 2.92476 13.0411C5.69676 12.3841 8.27676 12.9961 10.6918 14.3911C13.1248 15.7981 14.9398 17.7571 15.7648 20.5411C16.9228 20.1871 17.0728 19.9921 16.7938 18.9151C16.6288 18.2821 16.4218 17.6221 16.0798 17.0671Z" fill="url(#paint0_linear_2259_626)"/>
<path d="M18.2732 14.418C15.6992 10.668 12.0542 8.57101 7.59921 7.86901C6.42021 7.68301 5.21721 7.73401 4.11321 8.29801C3.58521 8.56801 3.11721 8.91301 2.99121 9.64501C6.46521 8.68801 9.58221 9.53401 12.5162 11.235C15.4652 12.945 17.7692 15.24 18.6662 18.768C19.2902 18.216 19.4012 17.538 19.2392 16.908C19.0172 16.044 18.7652 15.135 18.2732 14.418Z" fill="url(#paint1_linear_2259_626)"/>
<path d="M3.1499 14.6581C3.3689 15.1441 3.5129 15.6931 3.8399 16.0861C4.0049 16.2871 4.5059 16.2091 4.8539 16.2571C4.9079 16.2631 4.9619 16.2721 5.0159 16.2781C8.1029 16.7371 10.5389 18.2311 12.2789 20.8381C12.3809 20.9911 12.5459 21.2191 12.6809 21.2191C13.2029 21.2161 13.7279 21.1351 14.2559 21.0841C13.4699 16.7251 6.9839 13.1491 3.1499 14.6581Z" fill="url(#paint2_linear_2259_626)"/>
<path d="M19.6978 11.0009C17.9968 8.62188 15.6508 7.03788 12.9868 5.90988C11.1418 5.12688 9.23078 4.65588 7.20278 4.89888C6.50078 4.98288 5.84378 5.18388 5.30078 5.63988C12.2278 5.81388 17.4388 8.81388 21.0208 14.7389C21.0268 14.3459 21.0868 13.9079 20.9428 13.5539C20.5828 12.6749 20.2408 11.7599 19.6978 11.0009Z" fill="url(#paint3_linear_2259_626)"/>
<path d="M21.294 9.75897C19.884 4.39197 14.154 1.80897 9.91797 3.11697C14.481 4.01697 18.225 6.19197 21.294 9.75897Z" fill="url(#paint4_linear_2259_626)"/>
<path d="M4.66211 17.517C6.30011 19.596 8.38211 20.808 11.0521 21.201C10.0321 19.296 6.43811 17.235 4.66211 17.517Z" fill="url(#paint5_linear_2259_626)"/>
</g>
<defs>
<linearGradient id="paint0_linear_2259_626" x1="17.2475" y1="4.02388" x2="7.45553" y2="19.7307" gradientUnits="userSpaceOnUse">
<stop offset="0.16" stop-color="#C6F462"/>
<stop offset="0.89" stop-color="#33D9FF"/>
</linearGradient>
<linearGradient id="paint1_linear_2259_626" x1="17.1779" y1="3.9801" x2="7.3862" y2="19.6869" gradientUnits="userSpaceOnUse">
<stop offset="0.16" stop-color="#C6F462"/>
<stop offset="0.89" stop-color="#33D9FF"/>
</linearGradient>
<linearGradient id="paint2_linear_2259_626" x1="17.3103" y1="4.06305" x2="7.51864" y2="19.7699" gradientUnits="userSpaceOnUse">
<stop offset="0.16" stop-color="#C6F462"/>
<stop offset="0.89" stop-color="#33D9FF"/>
</linearGradient>
<linearGradient id="paint3_linear_2259_626" x1="17.0706" y1="3.91333" x2="7.2786" y2="19.6201" gradientUnits="userSpaceOnUse">
<stop offset="0.16" stop-color="#C6F462"/>
<stop offset="0.89" stop-color="#33D9FF"/>
</linearGradient>
<linearGradient id="paint4_linear_2259_626" x1="17.1509" y1="3.96322" x2="7.35889" y2="19.67" gradientUnits="userSpaceOnUse">
<stop offset="0.16" stop-color="#C6F462"/>
<stop offset="0.89" stop-color="#33D9FF"/>
</linearGradient>
<linearGradient id="paint5_linear_2259_626" x1="17.3713" y1="4.10066" x2="7.57956" y2="19.8075" gradientUnits="userSpaceOnUse">
<stop offset="0.16" stop-color="#C6F462"/>
<stop offset="0.89" stop-color="#33D9FF"/>
</linearGradient>
<clipPath id="clip0_2259_626">
<rect width="24" height="24" fill="white"/>
</clipPath>
</defs>
</svg>
