<svg width="31" height="31" viewBox="0 0 31 31" fill="none" xmlns="http://www.w3.org/2000/svg">
<mask id="path-1-inside-1_2259_575" fill="white">
<path d="M0.5 6.5C0.5 3.18629 3.18629 0.5 6.5 0.5H24.5C27.8137 0.5 30.5 3.18629 30.5 6.5V24.5C30.5 27.8137 27.8137 30.5 24.5 30.5H6.5C3.18629 30.5 0.5 27.8137 0.5 24.5V6.5Z"/>
</mask>
<path d="M0.5 6.5C0.5 3.18629 3.18629 0.5 6.5 0.5H24.5C27.8137 0.5 30.5 3.18629 30.5 6.5V24.5C30.5 27.8137 27.8137 30.5 24.5 30.5H6.5C3.18629 30.5 0.5 27.8137 0.5 24.5V6.5Z" fill="white"/>
<path d="M-1.5 6.5C-1.5 2.08172 2.08172 -1.5 6.5 -1.5H25.5C29.9183 -1.5 33.5 2.08172 33.5 6.5H27.5C27.5 4.29086 26.1569 2.5 24.5 2.5H6.5C4.29086 2.5 2.5 4.29086 2.5 6.5H-1.5ZM33.5 24.5C33.5 29.4706 29.4706 33.5 24.5 33.5H6.5C2.08172 33.5 -1.5 29.9183 -1.5 25.5L2.5 24.5C2.5 26.1569 4.29086 27.5 6.5 27.5H24.5C26.1569 27.5 27.5 26.1569 27.5 24.5H33.5ZM6.5 33.5C2.08172 33.5 -1.5 29.9183 -1.5 25.5V6.5C-1.5 2.08172 2.08172 -1.5 6.5 -1.5V2.5C4.29086 2.5 2.5 4.29086 2.5 6.5V24.5C2.5 26.1569 4.29086 27.5 6.5 27.5V33.5ZM25.5 -1.5C29.9183 -1.5 33.5 2.08172 33.5 6.5V24.5C33.5 29.4706 29.4706 33.5 24.5 33.5V27.5C26.1569 27.5 27.5 26.1569 27.5 24.5V6.5C27.5 4.29086 26.1569 2.5 24.5 2.5L25.5 -1.5Z" fill="black" mask="url(#path-1-inside-1_2259_575)"/>
<path fill-rule="evenodd" clip-rule="evenodd" d="M16.3316 12.7069C16.805 12.4626 17.4074 12.1028 18.0105 11.61C18.1376 11.8834 18.1516 12.1219 18.086 12.3145C18.0396 12.4503 17.9521 12.5683 17.8371 12.6623C17.7125 12.7638 17.5569 12.8377 17.3849 12.8777C17.0586 12.9538 16.6776 12.9093 16.3316 12.7069ZM16.4136 15.2108L17.0403 15.5855C15.7608 16.3279 15.4129 17.7064 14.9997 19.0491C14.5865 17.7064 14.2386 16.3279 12.9591 15.5855L13.5858 15.2108C13.6464 15.187 13.6982 15.1441 13.7338 15.088C13.7694 15.0319 13.7869 14.9656 13.7839 14.8986C13.7265 13.6412 14.0544 13.0851 14.4969 12.7359C14.6555 12.6109 14.8288 12.5481 14.9997 12.5481C15.1706 12.5481 15.3438 12.6109 15.5026 12.7359C15.945 13.0851 16.273 13.6412 16.2155 14.8986C16.2125 14.9656 16.23 15.0319 16.2656 15.088C16.3012 15.1441 16.353 15.187 16.4136 15.2108ZM14.9997 7C15.7241 7.02013 16.4503 7.16571 17.0805 7.4489C17.5169 7.64526 17.9242 7.90464 18.2929 8.2148C18.4594 8.35483 18.5966 8.49009 18.7476 8.64582C19.155 8.6604 19.7504 8.19189 20.0268 7.75351C19.5511 9.36787 17.3804 11.2743 15.8776 12.0038C15.877 12.0035 15.8766 12.0031 15.8761 12.0028C15.6064 11.7896 15.3031 11.683 14.9997 11.683C14.6963 11.683 14.393 11.7896 14.1233 12.0028C14.1229 12.0031 14.1224 12.0036 14.1218 12.0038C12.619 11.2743 10.4483 9.36787 9.97266 7.75351C10.249 8.19189 10.8444 8.6604 11.2518 8.64582C11.4029 8.49015 11.54 8.35483 11.7065 8.2148C12.0752 7.90464 12.4824 7.64526 12.9189 7.4489C13.5492 7.16571 14.2753 7.02013 14.9997 7ZM13.6678 12.7069C13.1944 12.4626 12.592 12.1028 11.9889 11.61C11.8618 11.8834 11.8479 12.1219 11.9133 12.3145C11.9598 12.4503 12.0473 12.5683 12.1623 12.6623C12.2869 12.7638 12.4425 12.8377 12.6145 12.8777C12.9408 12.9538 13.3218 12.9093 13.6678 12.7069Z" fill="black"/>
<path fill-rule="evenodd" clip-rule="evenodd" d="M18.6713 11.0064C19.0033 10.6596 19.2959 10.2757 19.5311 9.93311L19.6506 10.1659C20.0352 10.9625 20.2351 11.7559 20.2351 12.6488L20.2343 14.0657L20.2415 14.8002C20.2693 16.6034 20.6462 18.4278 21.5 20.0973L19.7137 18.6062L18.4497 20.7295L17.1219 19.4355L15 23L12.8781 19.4355L11.5503 20.7295L10.2864 18.6063L8.5 20.0974C9.35377 18.4278 9.73067 16.6034 9.75858 14.8002L9.7658 14.0657L9.76497 12.6488C9.76497 11.7559 9.96477 10.9625 10.3495 10.1659L10.4689 9.93316C10.7042 10.2757 10.9967 10.6596 11.3287 11.0065L11.225 11.2295C11.0236 11.6625 10.9569 12.1467 11.1138 12.6072C11.215 12.9038 11.3996 13.1581 11.6376 13.3523C11.8688 13.5409 12.1423 13.668 12.4286 13.7347C12.6152 13.7782 12.8052 13.7961 12.994 13.79C12.95 14.0485 12.9307 14.3167 12.9295 14.5899L11.2444 15.5974L12.5448 16.3519C12.6487 16.4122 12.7476 16.4813 12.8406 16.5585C13.9126 17.5549 14.5571 20.5026 15.0001 21.9423C15.443 20.5026 16.0875 17.5549 17.1596 16.5585C17.2525 16.4813 17.3515 16.4122 17.4554 16.3519L18.7557 15.5974L17.0706 14.5899C17.0694 14.3167 17.0501 14.0485 17.0061 13.79C17.1949 13.7961 17.3849 13.7782 17.5715 13.7347C17.8578 13.668 18.1314 13.5409 18.3625 13.3523C18.6004 13.1581 18.7851 12.9038 18.8862 12.6072C19.0432 12.1467 18.9765 11.6626 18.7751 11.2295L18.6714 11.0065L18.6713 11.0064Z" fill="black"/>
</svg>
