<svg width="34" height="36" viewBox="0 0 34 36" fill="none" xmlns="http://www.w3.org/2000/svg">
<mask id="path-1-inside-1_2259_298" fill="white">
<path d="M2.5 6.5C2.5 3.18629 5.18629 0.5 8.5 0.5H26.5C29.8137 0.5 32.5 3.18629 32.5 6.5V24.5C32.5 27.8137 29.8137 30.5 26.5 30.5H8.5C5.18629 30.5 2.5 27.8137 2.5 24.5V6.5Z"/>
</mask>
<path d="M2.5 6.5C2.5 3.18629 5.18629 0.5 8.5 0.5H26.5C29.8137 0.5 32.5 3.18629 32.5 6.5V24.5C32.5 27.8137 29.8137 30.5 26.5 30.5H8.5C5.18629 30.5 2.5 27.8137 2.5 24.5V6.5Z" fill="white"/>
<path d="M0.5 6.5C0.5 2.08172 4.08172 -1.5 8.5 -1.5H27.5C31.9183 -1.5 35.5 2.08172 35.5 6.5H29.5C29.5 4.29086 28.1569 2.5 26.5 2.5H8.5C6.29086 2.5 4.5 4.29086 4.5 6.5H0.5ZM35.5 24.5C35.5 29.4706 31.4706 33.5 26.5 33.5H8.5C4.08172 33.5 0.5 29.9183 0.5 25.5L4.5 24.5C4.5 26.1569 6.29086 27.5 8.5 27.5H26.5C28.1569 27.5 29.5 26.1569 29.5 24.5H35.5ZM8.5 33.5C4.08172 33.5 0.5 29.9183 0.5 25.5V6.5C0.5 2.08172 4.08172 -1.5 8.5 -1.5V2.5C6.29086 2.5 4.5 4.29086 4.5 6.5V24.5C4.5 26.1569 6.29086 27.5 8.5 27.5V33.5ZM27.5 -1.5C31.9183 -1.5 35.5 2.08172 35.5 6.5V24.5C35.5 29.4706 31.4706 33.5 26.5 33.5V27.5C28.1569 27.5 29.5 26.1569 29.5 24.5V6.5C29.5 4.29086 28.1569 2.5 26.5 2.5L27.5 -1.5Z" fill="black" mask="url(#path-1-inside-1_2259_298)"/>
<g filter="url(#filter0_d_2259_298)">
<path d="M9.00005 14.8333C9.00005 14.8333 15.75 12.0833 18.0834 11.0833C19 10.6666 22 9.41659 22 9.41659C22 9.41659 23.4167 8.83325 23.25 10.1666C23.25 10.7499 22.9167 12.6666 22.5834 14.6666C22.0834 17.5833 21.5834 20.8333 21.5834 20.8333C21.5834 20.8333 21.5 21.7499 20.8334 21.9166C20.1667 22.0833 19.0834 21.3333 18.9167 21.2499C18.75 21.1666 16 19.4166 15 18.4999C14.75 18.2499 14.4167 17.8333 15 17.2499C16.4167 15.9999 18.0834 14.3333 19.0834 13.3333C19.5834 12.8333 20 11.7499 18.0834 13.0833C15.3334 14.9999 12.5834 16.8333 12.5834 16.8333C12.5834 16.8333 12 17.2499 10.75 16.8333C9.58338 16.4999 8.25005 15.9999 8.25005 15.9999C8.25005 15.9999 7.33338 15.4999 9.00005 14.8333Z" fill="black"/>
</g>
<defs>
<filter id="filter0_d_2259_298" x="-1.5" y="0.5" width="38" height="38" filterUnits="userSpaceOnUse" color-interpolation-filters="sRGB">
<feFlood flood-opacity="0" result="BackgroundImageFix"/>
<feColorMatrix in="SourceAlpha" type="matrix" values="0 0 0 0 0 0 0 0 0 0 0 0 0 0 0 0 0 0 127 0" result="hardAlpha"/>
<feOffset dy="4"/>
<feGaussianBlur stdDeviation="2"/>
<feComposite in2="hardAlpha" operator="out"/>
<feColorMatrix type="matrix" values="0 0 0 0 0 0 0 0 0 0 0 0 0 0 0 0 0 0 0.25 0"/>
<feBlend mode="normal" in2="BackgroundImageFix" result="effect1_dropShadow_2259_298"/>
<feBlend mode="normal" in="SourceGraphic" in2="effect1_dropShadow_2259_298" result="shape"/>
</filter>
</defs>
</svg>
