<svg width="41" height="31" viewBox="0 0 41 31" fill="none" xmlns="http://www.w3.org/2000/svg">
<mask id="path-1-inside-1_2259_304" fill="white">
<path d="M5.5 6.5C5.5 3.18629 8.18629 0.5 11.5 0.5H29.5C32.8137 0.5 35.5 3.18629 35.5 6.5V24.5C35.5 27.8137 32.8137 30.5 29.5 30.5H11.5C8.18629 30.5 5.5 27.8137 5.5 24.5V6.5Z"/>
</mask>
<path d="M5.5 6.5C5.5 3.18629 8.18629 0.5 11.5 0.5H29.5C32.8137 0.5 35.5 3.18629 35.5 6.5V24.5C35.5 27.8137 32.8137 30.5 29.5 30.5H11.5C8.18629 30.5 5.5 27.8137 5.5 24.5V6.5Z" fill="white"/>
<path d="M3.5 6.5C3.5 2.08172 7.08172 -1.5 11.5 -1.5H30.5C34.9183 -1.5 38.5 2.08172 38.5 6.5H32.5C32.5 4.29086 31.1569 2.5 29.5 2.5H11.5C9.29086 2.5 7.5 4.29086 7.5 6.5H3.5ZM38.5 24.5C38.5 29.4706 34.4706 33.5 29.5 33.5H11.5C7.08172 33.5 3.5 29.9183 3.5 25.5L7.5 24.5C7.5 26.1569 9.29086 27.5 11.5 27.5H29.5C31.1569 27.5 32.5 26.1569 32.5 24.5H38.5ZM11.5 33.5C7.08172 33.5 3.5 29.9183 3.5 25.5V6.5C3.5 2.08172 7.08172 -1.5 11.5 -1.5V2.5C9.29086 2.5 7.5 4.29086 7.5 6.5V24.5C7.5 26.1569 9.29086 27.5 11.5 27.5V33.5ZM30.5 -1.5C34.9183 -1.5 38.5 2.08172 38.5 6.5V24.5C38.5 29.4706 34.4706 33.5 29.5 33.5V27.5C31.1569 27.5 32.5 26.1569 32.5 24.5V6.5C32.5 4.29086 31.1569 2.5 29.5 2.5L30.5 -1.5Z" fill="black" mask="url(#path-1-inside-1_2259_304)"/>
<path d="M27.7498 10.0001C27.4998 10.0834 27.2498 10.1667 26.9998 10.2501C27.3332 9.91675 27.5832 9.50008 27.6665 9.00008C27.6665 8.91675 27.6665 8.75008 27.5832 8.75008C27.4998 8.75008 27.3332 8.75008 27.2498 8.75008C26.6665 9.08341 26.0832 9.33341 25.4998 9.41675C24.8332 8.83341 23.9998 8.41675 23.0832 8.41675C21.2498 8.41675 19.6665 9.91675 19.6665 11.8334C19.6665 12.0001 19.6665 12.1667 19.6665 12.2501C17.3332 12.0834 15.1665 10.9167 13.6665 9.08341C13.5832 9.00008 13.4998 9.00008 13.4165 9.00008C13.3332 9.00008 13.2498 9.08341 13.2498 9.16675C12.9165 9.66675 12.7498 10.2501 12.7498 10.9167C12.7498 11.7501 13.0832 12.5001 13.5832 13.0834C13.4165 13.0001 13.2498 13.0001 13.1665 12.9167C13.1665 12.9167 13.0832 12.9167 12.9998 12.9167C12.9165 13.0001 12.8332 13.0834 12.8332 13.1667C12.8332 13.1667 12.8332 13.1667 12.8332 13.2501C12.8332 14.5001 13.4998 15.5834 14.4998 16.1667C14.4165 16.1667 14.3332 16.1667 14.2498 16.1667C14.1665 16.1667 14.0832 16.1667 13.9998 16.2501C13.9165 16.3334 13.9165 16.4167 13.9165 16.5001C14.2498 17.6667 15.2498 18.5001 16.4165 18.7501C15.4165 19.3334 14.3332 19.6667 13.1665 19.6667C12.9165 19.6667 12.6665 19.6667 12.4165 19.5834C12.3332 19.5834 12.1665 19.6667 12.1665 19.7501C12.1665 19.8334 12.1665 20.0001 12.2498 20.0834C13.7498 21.0001 15.4165 21.5001 17.1665 21.5001C20.6665 21.5001 22.8332 19.8334 23.9998 18.5001C25.4998 16.8334 26.3332 14.5001 26.3332 12.3334C26.3332 12.2501 26.3332 12.1667 26.3332 12.0834C26.9165 11.6667 27.4165 11.0834 27.8332 10.5001C27.9165 10.4167 27.9165 10.2501 27.8332 10.1667C27.9165 10.0001 27.8332 10.0001 27.7498 10.0001Z" fill="black"/>
</svg>
